HIERARCHY
ROOT pelvis
{
	OFFSET 0.003123 -0.351407 0.012037
	CHANNELS 6 Xposition Yposition Zposition Zrotation Yrotation Xrotation 
	JOINT left_hip
	{
		OFFSET 0.058189 -0.092763 -0.026001
		CHANNELS 3 Zrotation Yrotation Xrotation
		JOINT left_knee
		{
			OFFSET 0.054695 -0.378753 -0.009396
			CHANNELS 3 Zrotation Yrotation Xrotation
			JOINT left_ankle
			{
				OFFSET -0.043453 -0.403059 -0.031876
				CHANNELS 3 Zrotation Yrotation Xrotation
				JOINT left_foot
				{
					OFFSET 0.047257 -0.057997 0.118216
					CHANNELS 3 Zrotation Yrotation Xrotation
					End Site
					{
						OFFSET 0.000000 0.000000 0.000000
					}
				}
			}
		}
	}
	JOINT right_hip
	{
		OFFSET -0.063267 -0.103908 -0.021250
		CHANNELS 3 Zrotation Yrotation Xrotation
		JOINT right_knee
		{
			OFFSET -0.044210 -0.362380 -0.016824
			CHANNELS 3 Zrotation Yrotation Xrotation
			JOINT right_ankle
			{
				OFFSET 0.015417 -0.410728 -0.020192
				CHANNELS 3 Zrotation Yrotation Xrotation
				JOINT right_foot
				{
					OFFSET -0.038812 -0.058328 0.119049
					CHANNELS 3 Zrotation Yrotation Xrotation
					End Site
					{
						OFFSET 0.000000 0.000000 0.000000
					}
				}
			}
		}
	}
	JOINT spine_1
	{
		OFFSET -0.002763 0.109891 -0.027618
		CHANNELS 3 Zrotation Yrotation Xrotation
		JOINT spine_2
		{
			OFFSET 0.009448 0.131853 -0.005940
			CHANNELS 3 Zrotation Yrotation Xrotation
			JOINT spine_3
			{
				OFFSET -0.011330 0.052235 0.028447
				CHANNELS 3 Zrotation Yrotation Xrotation
				JOINT neck
				{
					OFFSET -0.012164 0.165167 -0.031615
					CHANNELS 3 Zrotation Yrotation Xrotation
					JOINT head
					{
						OFFSET 0.024783 0.160452 0.020737
						CHANNELS 3 Zrotation Yrotation Xrotation
						End Site
						{
							OFFSET 0.000000 0.000000 0.000000
						}
					}
				}
				JOINT left_collar
				{
					OFFSET 0.046364 0.084944 -0.007220
					CHANNELS 3 Zrotation Yrotation Xrotation
					JOINT left_shoulder
					{
						OFFSET 0.119239 0.057728 -0.015461
						CHANNELS 3 Zrotation Yrotation Xrotation
						JOINT left_elbow
						{
							OFFSET 0.254123 -0.072151 -0.042459
							CHANNELS 3 Zrotation Yrotation Xrotation
							JOINT left_wrist
							{
								OFFSET 0.251987 0.023221 -0.002472
								CHANNELS 3 Zrotation Yrotation Xrotation
								JOINT left_index_1
								{
									OFFSET 0.101902 -0.008688 0.019351
									CHANNELS 3 Zrotation Yrotation Xrotation
									JOINT left_index_2
									{
										OFFSET 0.030149 -0.011154 0.001151
										CHANNELS 3 Zrotation Yrotation Xrotation
										JOINT left_index_3
										{
											OFFSET 0.006504 -0.021577 -0.002433
											CHANNELS 3 Zrotation Yrotation Xrotation
											End Site
											{
												OFFSET 0.000000 0.000000 0.000000
											}
										}
									}
								}
								JOINT left_middle_1
								{
									OFFSET 0.109398 -0.006328 -0.003981
									CHANNELS 3 Zrotation Yrotation Xrotation
									JOINT left_middle_2
									{
										OFFSET 0.026472 -0.015218 -0.004641
										CHANNELS 3 Zrotation Yrotation Xrotation
										JOINT left_middle_3
										{
											OFFSET 0.005022 -0.023347 -0.001911
											CHANNELS 3 Zrotation Yrotation Xrotation
											End Site
											{
												OFFSET 0.000000 0.000000 0.000000
											}
										}
									}
								}
								JOINT left_pinky_1
								{
									OFFSET 0.084047 -0.014539 -0.043750
									CHANNELS 3 Zrotation Yrotation Xrotation
									JOINT left_pinky_2
									{
										OFFSET 0.012124 -0.014448 -0.005375
										CHANNELS 3 Zrotation Yrotation Xrotation
										JOINT left_pinky_3
										{
											OFFSET 0.003798 -0.018853 0.000167
											CHANNELS 3 Zrotation Yrotation Xrotation
											End Site
											{
												OFFSET 0.000000 0.000000 0.000000
											}
										}
									}
								}
								JOINT left_ring_1
								{
									OFFSET 0.097444 -0.009268 -0.027345
									CHANNELS 3 Zrotation Yrotation Xrotation
									JOINT left_ring_2
									{
										OFFSET 0.023561 -0.016057 -0.001895
										CHANNELS 3 Zrotation Yrotation Xrotation
										JOINT left_ring_3
										{
											OFFSET 0.004257 -0.023548 0.000814
											CHANNELS 3 Zrotation Yrotation Xrotation
											End Site
											{
												OFFSET 0.000000 0.000000 0.000000
											}
										}
									}
								}
								JOINT left_thumb_1
								{
									OFFSET 0.040636 -0.017977 0.025611
									CHANNELS 3 Zrotation Yrotation Xrotation
									JOINT left_thumb_2
									{
										OFFSET 0.021637 -0.017639 0.011623
										CHANNELS 3 Zrotation Yrotation Xrotation
										JOINT left_thumb_3
										{
											OFFSET 0.024002 -0.008356 0.006548
											CHANNELS 3 Zrotation Yrotation Xrotation
											End Site
											{
												OFFSET 0.000000 0.000000 0.000000
											}
										}
									}
								}
							}
						}
					}
				}
				JOINT right_collar
				{
					OFFSET -0.047695 0.084339 -0.013400
					CHANNELS 3 Zrotation Yrotation Xrotation
					JOINT right_shoulder
					{
						OFFSET -0.102578 0.053524 -0.012669
						CHANNELS 3 Zrotation Yrotation Xrotation
						JOINT right_elbow
						{
							OFFSET -0.271150 -0.036492 -0.026467
							CHANNELS 3 Zrotation Yrotation Xrotation
							JOINT right_wrist
							{
								OFFSET -0.249267 -0.004533 -0.015325
								CHANNELS 3 Zrotation Yrotation Xrotation
								JOINT right_index_1
								{
									OFFSET -0.099881 -0.011783 0.019600
									CHANNELS 3 Zrotation Yrotation Xrotation
									JOINT right_index_2
									{
										OFFSET -0.030148 -0.011154 0.001151
										CHANNELS 3 Zrotation Yrotation Xrotation
										JOINT right_index_3
										{
											OFFSET -0.006505 -0.021577 -0.002432
											CHANNELS 3 Zrotation Yrotation Xrotation
											End Site
											{
												OFFSET 0.000000 0.000000 0.000000
											}
										}
									}
								}
								JOINT right_middle_1
								{
									OFFSET -0.107376 -0.009422 -0.003734
									CHANNELS 3 Zrotation Yrotation Xrotation
									JOINT right_middle_2
									{
										OFFSET -0.026472 -0.015218 -0.004641
										CHANNELS 3 Zrotation Yrotation Xrotation
										JOINT right_middle_3
										{
											OFFSET -0.005022 -0.023347 -0.001911
											CHANNELS 3 Zrotation Yrotation Xrotation
											End Site
											{
												OFFSET 0.000000 0.000000 0.000000
											}
										}
									}
								}
								JOINT right_pinky_1
								{
									OFFSET -0.082027 -0.017634 -0.043503
									CHANNELS 3 Zrotation Yrotation Xrotation
									JOINT right_pinky_2
									{
										OFFSET -0.012123 -0.014448 -0.005374
										CHANNELS 3 Zrotation Yrotation Xrotation
										JOINT right_pinky_3
										{
											OFFSET -0.003798 -0.018852 0.000167
											CHANNELS 3 Zrotation Yrotation Xrotation
											End Site
											{
												OFFSET 0.000000 0.000000 0.000000
											}
										}
									}
								}
								JOINT right_ring_1
								{
									OFFSET -0.095423 -0.012362 -0.027099
									CHANNELS 3 Zrotation Yrotation Xrotation
									JOINT right_ring_2
									{
										OFFSET -0.023561 -0.016057 -0.001895
										CHANNELS 3 Zrotation Yrotation Xrotation
										JOINT right_ring_3
										{
											OFFSET -0.004257 -0.023548 0.000816
											CHANNELS 3 Zrotation Yrotation Xrotation
											End Site
											{
												OFFSET 0.000000 0.000000 0.000000
											}
										}
									}
								}
								JOINT right_thumb_1
								{
									OFFSET -0.038613 -0.021074 0.025861
									CHANNELS 3 Zrotation Yrotation Xrotation
									JOINT right_thumb_2
									{
										OFFSET -0.021636 -0.017639 0.011623
										CHANNELS 3 Zrotation Yrotation Xrotation
										JOINT right_thumb_3
										{
											OFFSET -0.024004 -0.008353 0.006547
											CHANNELS 3 Zrotation Yrotation Xrotation
											End Site
											{
												OFFSET 0.000000 0.000000 0.000000
											}
										}
									}
								}
							}
						}
					}
				}
			}
		}
	}
}
MOTION
Frames: 4
Frame Time: 0.050000
0.511658 1.031357 0.095619 -108.931184 -57.936947 72.827039 53.682154 18.197663 40.757454 -0.047574 0.560519 -2.703403 -17.603039 -11.927441 29.101858 0.000000 0.000000 0.000000 -55.033216 26.935945 -28.831789 10.799969 2.017620 2.250640 12.945584 -12.138468 67.049448 0.000000 0.000000 0.000000 -0.740717 -0.978634 12.147934 33.027651 14.738190 29.411666 -8.744593 -24.194768 24.939787 10.422919 0.059070 -9.738942 0.000000 0.000000 0.000000 -15.767262 -17.920685 19.605410 113.623609 -80.527534 -129.422653 115.700085 -55.393582 -60.231319 4.304088 -2.307113 -27.561871 7.439089 -0.434315 -0.147333 23.577779 -0.539581 -13.107794 0.000000 0.000000 0.000000 4.514527 -4.976810 -2.448977 19.754577 0.220871 -3.960098 0.000000 0.000000 0.000000 9.786037 -9.621181 -13.988301 13.032662 1.759995 8.893783 0.000000 0.000000 0.000000 2.876011 -4.991322 -3.899877 21.807119 1.834001 -3.443172 0.000000 0.000000 0.000000 20.454309 5.751849 -8.178325 -18.181864 -7.623195 2.450227 0.000000 0.000000 0.000000 2.937536 -20.741077 -16.908314 74.127985 -3.851092 -23.230735 -1.054721 10.144081 -0.513295 1.345338 -2.016892 17.997119 3.753422 4.033950 -1.769601 -14.538358 0.845066 7.826467 0.000000 0.000000 0.000000 -3.580092 2.103748 -0.600708 -8.348886 0.715517 5.798404 0.000000 0.000000 0.000000 -19.222044 6.047603 4.881003 10.703995 0.051644 0.803822 0.000000 0.000000 0.000000 -7.822108 -1.653703 1.971568 -0.414839 -0.007431 -0.751270 0.000000 0.000000 0.000000 1.492640 -3.252365 3.924034 4.077908 5.409100 0.070535 0.000000 0.000000 0.000000 
0.504120 1.022331 0.086380 -107.177110 -55.410872 70.647537 58.962303 18.937529 40.456937 0.602644 0.296672 -1.330172 -19.831479 -15.649266 25.575397 0.000000 0.000000 0.000000 -49.232258 24.412741 -25.332855 -5.302371 0.379063 -6.336563 11.761323 -10.907841 73.114704 0.000000 0.000000 0.000000 -2.161150 -0.029281 9.177804 36.674125 12.334374 29.302685 -8.529716 -26.037770 26.111057 7.977637 -0.318139 -8.186554 0.000000 0.000000 0.000000 -20.322977 -15.966709 21.078542 154.452396 -81.734895 178.881614 133.885157 -67.997980 -92.589116 4.312533 -1.377241 -26.476187 6.818536 -0.629559 -0.251207 21.665987 -0.897148 -11.270670 0.000000 0.000000 0.000000 4.847351 -5.374189 -2.637483 20.392122 0.140128 -1.212675 0.000000 0.000000 0.000000 11.523538 -9.837467 -13.821981 11.323190 2.033352 9.665237 0.000000 0.000000 0.000000 2.844481 -4.511656 -3.446814 20.591474 1.594591 -3.788441 0.000000 0.000000 0.000000 20.621976 6.591793 -7.321569 -20.216344 -7.985754 3.266083 0.000000 0.000000 0.000000 2.102691 -21.065357 -16.692932 72.348974 -4.343589 -23.656745 -1.709129 6.432770 -0.317844 1.523981 -3.009590 23.250958 6.635683 0.818002 -0.495523 -19.429420 3.381843 0.884996 0.000000 0.000000 0.000000 -3.953062 0.831694 0.250947 -3.219937 -0.074639 3.324703 0.000000 0.000000 0.000000 -16.691136 4.771210 4.698806 6.213682 -0.352926 6.545361 0.000000 0.000000 0.000000 -8.603289 2.254881 -0.623003 1.129028 -0.747646 7.360666 0.000000 0.000000 0.000000 4.147545 -4.848482 6.063157 1.182921 10.173510 -2.247978 0.000000 0.000000 0.000000 
0.485275 1.010082 0.089020 -105.593806 -55.384324 67.899688 61.436930 18.738504 41.295014 0.831169 0.185484 -0.636634 -23.208343 -17.881087 27.113803 0.000000 0.000000 0.000000 -54.388530 25.877583 -28.478055 -2.329562 0.177809 -2.262129 13.010595 -10.955744 73.149143 0.000000 0.000000 0.000000 -7.008851 1.204432 9.579816 34.138225 10.276233 26.442542 -4.050764 -23.398945 25.475269 7.040910 -0.805745 -5.829944 0.000000 0.000000 0.000000 -22.302714 -13.334851 20.705015 -172.399680 -81.460367 138.231379 158.082612 -72.396838 -124.649163 3.621576 -1.104194 -25.244503 6.609218 -1.043735 -0.424501 23.674867 -1.320808 -12.429730 0.000000 0.000000 0.000000 3.707771 -5.288937 -2.691180 22.931991 -0.251375 -3.264217 0.000000 0.000000 0.000000 11.727777 -10.321953 -14.201148 10.652556 2.144511 10.148949 0.000000 0.000000 0.000000 2.598669 -5.014112 -3.778954 22.544739 1.712115 -3.007509 0.000000 0.000000 0.000000 19.820676 5.455705 -7.609965 -18.599348 -7.359510 2.885494 0.000000 0.000000 0.000000 -1.593372 -16.937109 -11.284986 73.529396 -6.364587 -27.649176 -0.531129 6.839432 -0.325965 0.052632 -4.357143 27.047065 7.775915 3.727926 -1.881797 -18.631720 1.126543 9.178050 0.000000 0.000000 0.000000 -2.616594 3.594748 -1.675069 -6.587208 0.041619 8.963629 0.000000 0.000000 0.000000 -20.289134 7.487644 3.135662 8.329588 -1.058900 4.191937 0.000000 0.000000 0.000000 -7.112941 4.016222 -1.813991 -3.088323 -0.177302 12.580208 0.000000 0.000000 0.000000 4.057783 -6.071616 7.103667 0.628762 14.609654 -3.733747 0.000000 0.000000 0.000000 
0.464546 1.010082 0.085060 -104.926603 -56.555915 67.291196 61.211374 18.509273 41.796374 0.320293 0.284575 -0.504387 -22.791335 -15.401587 30.352632 0.000000 0.000000 0.000000 -62.391854 28.152621 -33.286737 11.035798 1.373318 5.449738 11.445582 -13.290377 68.457493 0.000000 0.000000 0.000000 -12.701061 3.670914 6.701324 31.193242 6.991289 19.167493 -1.731838 -21.094313 33.244573 6.771050 -1.117783 -5.740678 0.000000 0.000000 0.000000 -21.718560 -11.914306 21.713200 -179.327858 -80.406257 147.520028 151.061607 -71.170223 -112.347151 4.242624 -1.358059 -27.917968 6.384299 -1.808641 -0.605842 25.384667 -0.926508 -10.624398 0.000000 0.000000 0.000000 3.615714 -6.123722 -3.187658 21.441921 -0.121809 -3.346699 0.000000 0.000000 0.000000 9.968358 -10.344781 -14.381986 13.035573 1.885775 9.977866 0.000000 0.000000 0.000000 2.891028 -5.646322 -4.276972 21.713577 1.776980 -2.642028 0.000000 0.000000 0.000000 20.927740 5.734815 -7.816142 -19.097064 -8.560232 2.833961 0.000000 0.000000 0.000000 -2.206844 -11.204882 -8.436343 73.984699 -5.987240 -31.488654 -0.732886 6.455115 -0.330268 2.516262 -3.270316 29.005091 2.227830 1.062155 -0.778044 -14.815141 1.106466 6.033854 0.000000 0.000000 0.000000 -6.657916 0.557382 0.808477 -2.585634 -0.466961 4.710975 0.000000 0.000000 0.000000 -20.676659 3.908938 6.648105 11.000225 -1.543088 -1.643580 0.000000 0.000000 0.000000 -9.798782 1.254154 0.035849 1.141149 -0.807343 9.152904 0.000000 0.000000 0.000000 2.093184 -7.322292 8.194115 0.023140 15.476697 -4.214064 0.000000 0.000000 0.000000 
